<svg viewBox="0 0 2500 3258" version="1.1" xmlns="http://www.w3.org/2000/svg"><desc>Binarized and Traced by BDFM https://bitmap.designfamilymarket.com/</desc><path fill="#33ff33" d="M 871 0 L 985 0 L 985 38 L 1023 38 L 1023 152 L 1098 152 L 1098 189 L 1136 189 L 1136 227 L 1212 227 L 1212 265 L 1250 265 L 1250 379 L 1212 379 L 1212 682 L 1174 682 L 1174 833 L 947 833 L 947 38 L 909 38 L 909 76 L 871 76 Z M 1061 265 L 1061 379 L 1136 379 L 1136 265 Z M 833 114 L 871 114 L 871 189 L 795 189 L 795 227 L 758 227 L 758 265 L 720 265 L 720 227 L 758 227 L 758 189 L 795 189 L 795 152 L 833 152 Z M 644 265 L 682 265 L 682 455 L 644 455 Z M 795 265 L 833 265 L 833 303 L 871 303 L 871 341 L 833 341 L 833 379 L 795 379 L 795 341 L 758 341 L 758 303 L 795 303 Z M 682 492 L 720 492 L 720 644 L 682 644 Z M 720 682 L 758 682 L 758 795 L 720 795 Z M 1856 795 L 1970 795 L 1970 833 L 2121 833 L 2121 871 L 2197 871 L 2197 909 L 2235 909 L 2235 947 L 2273 947 L 2273 985 L 2311 985 L 2311 1061 L 2348 1061 L 2348 1136 L 2386 1136 L 2386 1250 L 2424 1250 L 2424 1439 L 2462 1439 L 2462 2197 L 2273 2197 L 2273 2235 L 2197 2235 L 2197 2386 L 1667 2386 L 1667 2348 L 1629 2348 L 1629 1970 L 1667 1970 L 1667 1856 L 1705 1856 L 1705 1780 L 1742 1780 L 1742 1742 L 1780 1742 L 1780 1667 L 1818 1667 L 1818 1629 L 1780 1629 L 1780 1591 L 1705 1591 L 1705 1629 L 1667 1629 L 1667 1667 L 1629 1667 L 1629 1629 L 1553 1629 L 1553 1667 L 1402 1667 L 1402 1629 L 1364 1629 L 1364 1553 L 1326 1553 L 1326 1439 L 1364 1439 L 1364 1402 L 1402 1402 L 1402 1364 L 1439 1364 L 1439 1402 L 1402 1402 L 1402 1439 L 1364 1439 L 1364 1477 L 1402 1477 L 1402 1591 L 1439 1591 L 1439 1553 L 1553 1553 L 1553 1515 L 1667 1515 L 1667 1477 L 1780 1477 L 1780 1439 L 1856 1439 L 1856 1402 L 1894 1402 L 1894 1288 L 1705 1288 L 1705 1326 L 1629 1326 L 1629 1364 L 1591 1364 L 1591 1402 L 1553 1402 L 1553 1364 L 1591 1364 L 1591 1326 L 1629 1326 L 1629 1288 L 1667 1288 L 1667 1250 L 1705 1250 L 1705 1174 L 1856 1174 L 1856 1136 L 1894 1136 L 1894 1098 L 1932 1098 L 1932 1061 L 2008 1061 L 2008 1023 L 2045 1023 L 2045 947 L 1894 947 L 1894 871 L 1856 871 Z M 1742 833 L 1818 833 L 1818 871 L 1780 871 L 1780 909 L 1818 909 L 1818 985 L 1742 985 L 1742 1023 L 1705 1023 L 1705 1061 L 1667 1061 L 1667 1098 L 1629 1098 L 1629 1136 L 1591 1136 L 1591 1250 L 1553 1250 L 1553 1136 L 1591 1136 L 1591 1098 L 1629 1098 L 1629 1061 L 1667 1061 L 1667 1023 L 1705 1023 L 1705 985 L 1742 985 Z M 720 871 L 1212 871 L 1212 909 L 720 909 Z M 682 947 L 1250 947 L 1250 985 L 682 985 Z M 985 1061 L 1326 1061 L 1326 1136 L 1212 1136 L 1212 1174 L 1174 1174 L 1174 1326 L 1212 1326 L 1212 1667 L 1250 1667 L 1250 1818 L 1288 1818 L 1288 1970 L 1326 1970 L 1326 2045 L 1364 2045 L 1364 2121 L 1402 2121 L 1402 2159 L 1439 2159 L 1439 2045 L 1477 2045 L 1477 2235 L 1515 2235 L 1515 2348 L 1553 2348 L 1553 2386 L 1515 2386 L 1515 2424 L 1477 2424 L 1477 2462 L 1439 2462 L 1439 2500 L 2273 2500 L 2273 2576 L 2235 2576 L 2235 2614 L 2273 2614 L 2273 2689 L 2311 2689 L 2311 2727 L 1856 2727 L 1856 2576 L 1515 2576 L 1515 2614 L 1477 2614 L 1477 2652 L 1439 2652 L 1439 2689 L 1402 2689 L 1402 2727 L 1364 2727 L 1364 2765 L 1288 2765 L 1288 2803 L 1326 2803 L 1326 2841 L 2462 2841 L 2462 3068 L 2500 3068 L 2500 3258 L 1326 3258 L 1326 3220 L 1780 3220 L 1780 2879 L 1326 2879 L 1326 2992 L 492 2992 L 492 2955 L 833 2955 L 833 2917 L 871 2917 L 871 2689 L 833 2689 L 833 2652 L 492 2652 L 492 2689 L 455 2689 L 455 2765 L 0 2765 L 0 2462 L 38 2462 L 38 2424 L 76 2424 L 76 2348 L 114 2348 L 114 2311 L 152 2311 L 152 2235 L 189 2235 L 189 1932 L 152 1932 L 152 1894 L 189 1894 L 189 1932 L 455 1932 L 455 1894 L 530 1894 L 530 1932 L 492 1932 L 492 2008 L 455 2008 L 455 2159 L 492 2159 L 492 2235 L 530 2235 L 530 2273 L 1402 2273 L 1402 2197 L 947 2197 L 947 1970 L 985 1970 L 985 1288 L 947 1288 L 947 1250 L 871 1250 L 871 1212 L 795 1212 L 795 1591 L 758 1591 L 758 1932 L 720 1932 L 720 2083 L 682 2083 L 682 2197 L 644 2197 L 644 2045 L 682 2045 L 682 1894 L 720 1894 L 720 1591 L 758 1591 L 758 1174 L 720 1174 L 720 1136 L 644 1136 L 644 1098 L 985 1098 Z M 265 1970 L 265 2083 L 227 2083 L 227 2273 L 189 2273 L 189 2348 L 152 2348 L 152 2386 L 114 2386 L 114 2462 L 76 2462 L 76 2727 L 341 2727 L 341 2576 L 303 2576 L 303 2538 L 341 2538 L 341 2500 L 455 2500 L 455 2462 L 492 2462 L 492 2386 L 341 2386 L 341 2008 L 303 2008 L 303 1970 Z M 568 2386 L 568 2424 L 530 2424 L 530 2462 L 492 2462 L 492 2538 L 455 2538 L 455 2576 L 1439 2576 L 1439 2500 L 871 2500 L 871 2424 L 909 2424 L 909 2386 Z M 227 1591 L 417 1591 L 417 1629 L 455 1629 L 455 1667 L 492 1667 L 492 1742 L 455 1742 L 455 1818 L 417 1818 L 417 1856 L 265 1856 L 265 1818 L 227 1818 L 227 1780 L 189 1780 L 189 1629 L 227 1629 Z M 227 1629 L 227 1780 L 303 1780 L 303 1818 L 341 1818 L 341 1780 L 379 1780 L 379 1742 L 417 1742 L 417 1667 L 379 1667 L 379 1629 Z M 1591 1705 L 1629 1705 L 1629 1742 L 1591 1742 L 1591 1818 L 1553 1818 L 1553 1894 L 1515 1894 L 1515 2008 L 1477 2008 L 1477 1894 L 1515 1894 L 1515 1818 L 1553 1818 L 1553 1742 L 1591 1742 Z"/></svg>